<?xml version="1.0" encoding="utf-8"?>
<!-- Generator: Adobe Illustrator 25.4.1, SVG Export Plug-In . SVG Version: 6.00 Build 0)  -->
<svg version="1.1" id="Capa_1" xmlns="http://www.w3.org/2000/svg" xmlns:xlink="http://www.w3.org/1999/xlink" x="0px" y="0px"
	 viewBox="0 0 39 55" style="enable-background:new 0 0 39 55;" xml:space="preserve">
<style type="text/css">
	.st0{fill-rule:evenodd;clip-rule:evenodd;fill:#F0614E;}
	.st1{filter:url(#Adobe_OpacityMaskFilter);}
	.st2{fill-rule:evenodd;clip-rule:evenodd;fill:#FFFFFF;}
	.st3{mask:url(#mask-2_00000058583298079732710500000007066339942094567835_);fill-rule:evenodd;clip-rule:evenodd;fill:#F0614E;}
</style>
<desc>Created with sketchtool.</desc>
<g id="_x30_5.Centros">
	<g id="GOfit-Desktop-ListadoCentros-Detalle" transform="translate(-550.000000, -961.000000)">
		<g id="CARACTERÃSTICAS" transform="translate(150.000000, 842.000000)">
			<g id="Caracteristica-Copy" transform="translate(388.000000, 115.000000)">
				<g id="Ico_x2F_Servicios_x2F_fitness">
					<g id="Group-6" transform="translate(12.800000, 4.000000)">
						<path id="Fill-1" class="st0" d="M27.5,45.5c-0.9,0-1.7-0.4-2.2-1.1l2.5-0.7c0.6-0.2,1-0.8,0.8-1.4c-0.2-0.6-0.8-1-1.4-0.8
							l-2.5,0.7c0.2-1.4,1.4-2.4,2.8-2.4c1.6,0,2.8,1.3,2.8,2.8C30.3,44.2,29.1,45.5,27.5,45.5 M27.5,37.6c-2.8,0-5.1,2.3-5.1,5.1
							c0,0.1,0,0.1,0,0.2L19,43.8c-0.6,0.2-1,0.8-0.8,1.4c0.1,0.5,0.6,0.8,1.1,0.8c0.1,0,0.2,0,0.3,0L23,45c0.9,1.6,2.5,2.7,4.5,2.7
							c2.8,0,5.1-2.3,5.1-5.1C32.6,39.9,30.3,37.6,27.5,37.6"/>
						<g id="Group-5" transform="translate(0.000000, 0.138992)">
							<g id="Clip-4">
							</g>
							<defs>
								<filter id="Adobe_OpacityMaskFilter" filterUnits="userSpaceOnUse" x="0" y="0.1" width="37.7" height="54.3">
									<feColorMatrix  type="matrix" values="1 0 0 0 0  0 1 0 0 0  0 0 1 0 0  0 0 0 1 0"/>
								</filter>
							</defs>
							
								<mask maskUnits="userSpaceOnUse" x="0" y="0.1" width="37.7" height="54.3" id="mask-2_00000058583298079732710500000007066339942094567835_">
								<g class="st1">
									<polygon id="path-1_00000004519488874902125400000000927579486393670801_" class="st2" points="0,0.1 37.7,0.1 37.7,54.4 
										0,54.4 									"/>
								</g>
							</mask>
							<path id="Fill-3" class="st3" d="M27.6,13.4L27,12.9l7.4-10.1l0.7,0.5L27.6,13.4z M33.6,36c-0.4-0.4-0.8-0.7-1.2-1
								c1-2.8,3.4-11.2-0.1-24.2l0.5-0.7C36.5,20.5,34.7,31.4,33.6,36L33.6,36z M28.2,49.1H10.1c-4.4,0-7.9-4.1-7.9-9
								c0-5,3.5-9,7.8-9c2.5,0.3,8.6,1.9,18.3,4.8c0.7,0.2,0.9,0.3,1,0.3c2.6,0.7,4.5,3.4,4.5,6.4C33.9,46.1,31.4,49.1,28.2,49.1
								L28.2,49.1z M25.9,52.2c0.4-0.5,0.9-0.8,1.6-0.8c0.7,0,1.3,0.3,1.6,0.8H25.9z M8.3,52.2c0.4-0.5,0.9-0.8,1.6-0.8
								s1.2,0.3,1.6,0.8H8.3z M9.8,23.4h0.8v5.4c-0.1,0-0.2,0-0.3,0c0,0-0.1,0-0.1,0c-0.1,0-0.2,0-0.4,0V23.4z M4.4,20.4v-0.6
								c0-0.4,0.3-0.7,0.7-0.7L15,20c0.2,0.1,0.3,0.2,0.3,0.3c0.1,0.3,0,0.7-0.1,0.8H5.2C4.8,21.2,4.4,20.8,4.4,20.4L4.4,20.4z
								 M37.3,2.2l-2.5-1.8c-0.2-0.2-0.5-0.2-0.8-0.2c-0.3,0-0.6,0.2-0.7,0.4l-8.8,11.9c-0.4,0.5-0.3,1.2,0.2,1.6l2.5,1.8
								c0.2,0.1,0.4,0.2,0.7,0.2c0.1,0,0.1,0,0.2,0c0.3,0,0.6-0.2,0.7-0.4l1.8-2.5c2.6,11,0.7,18.3-0.2,20.8c-0.1,0-0.2-0.1-0.4-0.1
								c-0.1,0-0.4-0.1-0.9-0.3c-3.1-0.9-11.3-3.4-16.2-4.4v-5.8h2.6c1.1,0,2-1.1,2.2-2.5c0.2-1.5-0.7-2.8-2.2-3.1c0,0-0.1,0-0.1,0
								l-10-1c0,0-0.1,0-0.1,0c-1.7,0-3,1.3-3,3v0.6c0,1.7,1.3,3,3,3h2.3v5.7C3.2,30.4,0,34.8,0,40c0,4.9,2.8,9,6.7,10.6
								c-0.6,0.7-0.9,1.6-0.9,2.6c0,0.6,0.5,1.1,1.1,1.1H13c0.6,0,1.1-0.5,1.1-1.1c0-0.7-0.2-1.4-0.5-2h10.2c-0.3,0.6-0.5,1.3-0.5,2
								c0,0.6,0.5,1.1,1.1,1.1h6.2c0.6,0,1.1-0.5,1.1-1.1c0-0.9-0.3-1.8-0.8-2.5c3.1-1.2,5.3-4.5,5.3-8.3c0-1.5-0.3-2.8-0.9-4.1
								c0.8-2.8,4.6-17.1-0.9-30.5l3.1-4.3C37.9,3.2,37.8,2.5,37.3,2.2L37.3,2.2z"/>
						</g>
					</g>
				</g>
			</g>
		</g>
	</g>
</g>
</svg>
