<?xml version="1.0" encoding="utf-8"?>
<!-- Generator: Adobe Illustrator 25.4.1, SVG Export Plug-In . SVG Version: 6.00 Build 0)  -->
<svg version="1.1" id="Capa_1" xmlns="http://www.w3.org/2000/svg" xmlns:xlink="http://www.w3.org/1999/xlink" x="0px" y="0px"
	 viewBox="0 0 42 43" style="enable-background:new 0 0 42 43;" xml:space="preserve">
<style type="text/css">
	.st0{fill:#F0614E;stroke:#F0614E;stroke-width:0.72;}
</style>
<desc>Created with sketchtool.</desc>
<g id="_x30_5.Centros">
	<g id="GOfit-Desktop-ListadoCentros-Detalle" transform="translate(-937.000000, -967.000000)">
		<g id="CARACTERÃSTICAS" transform="translate(150.000000, 842.000000)">
			<g id="Caracteristica-Copy-2" transform="translate(776.000000, 115.000000)">
				<g id="Ico_x2F_Servicios_x2F_Salas">
					<g id="room" transform="translate(11.200000, 11.200000)">
						<path id="Path" class="st0" d="M40.1,4.4c0.5,0,0.9-0.4,0.9-0.9V0.9C41,0.4,40.6,0,40.1,0H1.1C0.6,0,0.2,0.4,0.2,0.9v39.1
							c0,0.5,0.4,0.9,0.9,0.9h39.1c0.5,0,0.9-0.4,0.9-0.9V6.5c0-0.5-0.4-0.9-0.9-0.9c-0.5,0-0.9,0.4-0.9,0.9v14.8h-3.4
							c-0.5,0-0.9,0.4-0.9,0.9s0.4,0.9,0.9,0.9h3.4v16.1H14.6v-4.2c0-0.5-0.4-0.9-0.9-0.9s-0.9,0.4-0.9,0.9v4.2H1.9V1.7h10.9v26.9
							c0,0.5,0.4,0.9,0.9,0.9s0.9-0.4,0.9-0.9V23H30c0.5,0,0.9-0.4,0.9-0.9s-0.4-0.9-0.9-0.9H14.6V1.7h24.7v1.9
							C39.3,4.1,39.6,4.4,40.1,4.4z"/>
					</g>
				</g>
			</g>
		</g>
	</g>
</g>
</svg>
