<?xml version="1.0" encoding="utf-8"?>
<!-- Generator: Adobe Illustrator 25.4.1, SVG Export Plug-In . SVG Version: 6.00 Build 0)  -->
<svg version="1.1" id="Capa_1" xmlns="http://www.w3.org/2000/svg" xmlns:xlink="http://www.w3.org/1999/xlink" x="0px" y="0px"
	 viewBox="0 0 46 46" style="enable-background:new 0 0 46 46;" xml:space="preserve">
<style type="text/css">
	.st0{fill:#F0614E;}
</style>
<desc>Created with sketchtool.</desc>
<g id="_x30_5.Centros">
	<g id="GOfit-Desktop-ListadoCentros-Detalle" transform="translate(-158.000000, -965.000000)">
		<g id="CARACTERÃSTICAS" transform="translate(150.000000, 842.000000)">
			<g id="Caracteristica" transform="translate(0.000000, 115.000000)">
				<g id="Ico_x2F_Servicios_x2F_Superficie">
					<g id="area" transform="translate(8.800000, 8.800000)">
						<path id="Shape" class="st0" d="M45.1,11.3c0-3.1-2.5-5.6-5.7-5.6c-2.2,0-4.2,1.3-5.1,3.3l-4.8-0.8L29,11l4.8,0.8
							c0.2,2.1,1.5,3.9,3.5,4.7l-1.4,10.3c-2.8,0.3-5,2.7-5,5.6v0l-16.2,4.3c-0.9-1.5-2.4-2.6-4.2-2.8l-2.9-23
							c1.4-0.5,2.5-1.6,3.1-2.9l4.4,0.7l0.5-2.8l-4.4-0.7C11,2,8.2-0.2,5.1,0C2.1,0.3-0.2,3,0,6.1c0.2,2.6,2.3,4.8,4.9,5.1l2.9,23
							c-2.9,1.1-4.3,4.4-3.2,7.3s4.4,4.3,7.3,3.2c2.2-0.9,3.6-2.9,3.6-5.2v0l16.2-4.3c1.5,2.7,4.9,3.7,7.6,2.2
							c2.7-1.5,3.7-4.9,2.2-7.6c-0.6-1.1-1.6-2-2.8-2.5l1.4-10.3C42.9,16.5,45.1,14.1,45.1,11.3z M5.6,8.5c-1.6,0-2.8-1.3-2.8-2.8
							s1.3-2.8,2.8-2.8s2.8,1.3,2.8,2.8S7.2,8.5,5.6,8.5z M9.9,42.2C8.3,42.2,7,41,7,39.4c0-1.6,1.3-2.8,2.8-2.8s2.8,1.3,2.8,2.8
							C12.7,41,11.4,42.2,9.9,42.2z M39.4,32.4c0,1.6-1.3,2.8-2.8,2.8c-1.6,0-2.8-1.3-2.8-2.8c0-1.6,1.3-2.8,2.8-2.8
							C38.2,29.6,39.4,30.8,39.4,32.4z M36.6,11.3c0-1.6,1.3-2.8,2.8-2.8s2.8,1.3,2.8,2.8s-1.3,2.8-2.8,2.8S36.6,12.8,36.6,11.3z"/>
						
							<rect id="Rectangle" x="23.7" y="7.5" transform="matrix(0.1646 -0.9864 0.9864 0.1646 12.1969 32.1612)" class="st0" width="2.8" height="2.8"/>
						
							<rect id="Rectangle_00000074443457520502146330000017917330886523829395_" x="18.1" y="6.5" transform="matrix(0.1648 -0.9863 0.9863 0.1648 8.4604 25.896)" class="st0" width="2.8" height="2.8"/>
					</g>
				</g>
			</g>
		</g>
	</g>
</g>
</svg>
